<?xml version="1.0" encoding="utf-8"?>
<!-- Generator: Adobe Illustrator 23.0.1, SVG Export Plug-In . SVG Version: 6.00 Build 0)  -->
<svg version="1.1" id="Icons_-_48px" xmlns="http://www.w3.org/2000/svg" xmlns:xlink="http://www.w3.org/1999/xlink" x="0px"
	 y="0px" viewBox="0 0 48 48" style="enable-background:new 0 0 48 48;" xml:space="preserve">
<style type="text/css">
	.st0{fill:none;stroke:#000000;stroke-width:2;stroke-linecap:round;stroke-linejoin:round;stroke-miterlimit:10;}
</style>
<g>
	<path class="st0" d="M15,34c0,0,2.7,0,4,0h0c9.9,0,18-6.5,18-14.5S28.9,5,19,5C9.1,5,1,11.5,1,19.5c0,4.8,2.6,8.8,7,11.5
		c-0.3,5.1-3,8-3,8S11.1,38.9,15,34z"/>
	<path class="st0" d="M42,18c3,3,5,6.7,5,9.5c0,4.8-2.6,8.8-7,11.5c0.3,5.1,3,8,3,8s-6.1-0.1-10-5c0,0-2.7,0-4,0h0
		c-4.1,0-7.9-1.1-11-3"/>
</g>
</svg>
